# xmcd
#
# Track frame offsets:
#	150
#	7231
#	20063
#	35908
#	47482
#	58562
#	70686
#	81844
#	94468
#	105719
#	118960
#	137170
#
# Disc length: 2017 seconds
# Revision: 0
# Processed by: cddbd v1.5.2PL0 Copyright (c) Steve Scherf et al.
# Submitted via: dBpowerAMP V12.0
#
DISCID=ae07df0c
DTITLE=The Kody Norris Show - When I Get the Money Made
DYEAR=2017
DGENRE=Bluegrass
TTITLE0=Coal Minin' Man
TTITLE1=Down in the Willow Garden
TTITLE2=Back in the Country
TTITLE3=Truck Drivers Queen
TTITLE4=When I Get the Money Made
TTITLE5=I'm Movin' On
TTITLE6=Hold Whatcha Got
TTITLE7=Bald Knob, Arkansas
TTITLE8=You Can't Tell the Boys from the Girls
TTITLE9=A Boy Called Lonesome
TTITLE10=I'm Ready to Go Home
TTITLE11=The Bluegrass Auctioneer
EXTD=
EXTT0=
EXTT1=
EXTT2=
EXTT3=
EXTT4=
EXTT5=
EXTT6=
EXTT7=
EXTT8=
EXTT9=
EXTT10=
EXTT11=
PLAYORDER=
